<mxfile host="app.diagrams.net" agent="Mozilla/5.0 (Windows NT 10.0; Win64; x64) AppleWebKit/537.36 (KHTML, like Gecko) Chrome/129.0.0.0 Safari/537.36" version="24.7.17">
  <diagram name="Page-1" id="gJKtv1bLxc3i53e5d5N1">
    <mxGraphModel dx="1290" dy="563" grid="1" gridSize="10" guides="1" tooltips="1" connect="1" arrows="1" fold="1" page="1" pageScale="1" pageWidth="850" pageHeight="1100" math="0" shadow="0">
      <root>
        <mxCell id="0" />
        <mxCell id="1" parent="0" />
        <mxCell id="Agyuet9ktowAPZugGZ8n-1" value="User" style="shape=umlActor;verticalLabelPosition=bottom;verticalAlign=top;html=1;outlineConnect=0;" vertex="1" parent="1">
          <mxGeometry x="110" y="170" width="30" height="60" as="geometry" />
        </mxCell>
        <mxCell id="Agyuet9ktowAPZugGZ8n-2" value="" style="endArrow=none;html=1;rounded=0;" edge="1" parent="1" source="Agyuet9ktowAPZugGZ8n-1" target="Agyuet9ktowAPZugGZ8n-12">
          <mxGeometry width="50" height="50" relative="1" as="geometry">
            <mxPoint x="205" y="250" as="sourcePoint" />
            <mxPoint x="160" y="200" as="targetPoint" />
          </mxGeometry>
        </mxCell>
        <mxCell id="Agyuet9ktowAPZugGZ8n-3" value="Tạo bình luận" style="ellipse;whiteSpace=wrap;html=1;" vertex="1" parent="1">
          <mxGeometry x="220" y="130" width="120" height="50" as="geometry" />
        </mxCell>
        <mxCell id="Agyuet9ktowAPZugGZ8n-6" value="Nhập bình luận" style="ellipse;whiteSpace=wrap;html=1;" vertex="1" parent="1">
          <mxGeometry x="440" y="130" width="110" height="50" as="geometry" />
        </mxCell>
        <mxCell id="Agyuet9ktowAPZugGZ8n-7" value="&amp;lt;&amp;lt;include&amp;gt;&amp;gt;" style="endArrow=open;endSize=12;dashed=1;html=1;rounded=0;strokeColor=default;align=center;verticalAlign=middle;fontFamily=Helvetica;fontSize=11;fontColor=default;labelBackgroundColor=default;edgeStyle=none;" edge="1" parent="1" source="Agyuet9ktowAPZugGZ8n-3" target="Agyuet9ktowAPZugGZ8n-6">
          <mxGeometry x="0.0007" width="160" relative="1" as="geometry">
            <mxPoint x="414.14" y="460" as="sourcePoint" />
            <mxPoint x="694.14" y="470" as="targetPoint" />
            <mxPoint as="offset" />
          </mxGeometry>
        </mxCell>
        <mxCell id="Agyuet9ktowAPZugGZ8n-8" value="Cập nhật" style="ellipse;whiteSpace=wrap;html=1;" vertex="1" parent="1">
          <mxGeometry x="418" y="260" width="120" height="50" as="geometry" />
        </mxCell>
        <mxCell id="Agyuet9ktowAPZugGZ8n-9" value="Xóa" style="ellipse;whiteSpace=wrap;html=1;" vertex="1" parent="1">
          <mxGeometry x="418" y="330" width="120" height="50" as="geometry" />
        </mxCell>
        <mxCell id="Agyuet9ktowAPZugGZ8n-10" value="&amp;lt;&amp;lt;extend&amp;gt;&amp;gt;" style="endArrow=open;endSize=12;dashed=1;html=1;rounded=0;strokeColor=default;align=center;verticalAlign=middle;fontFamily=Helvetica;fontSize=11;fontColor=default;labelBackgroundColor=default;edgeStyle=none;" edge="1" parent="1" source="Agyuet9ktowAPZugGZ8n-12" target="Agyuet9ktowAPZugGZ8n-8">
          <mxGeometry x="0.0007" width="160" relative="1" as="geometry">
            <mxPoint x="400.2749360326892" y="444.01624263434405" as="sourcePoint" />
            <mxPoint x="634.14" y="420" as="targetPoint" />
            <mxPoint as="offset" />
          </mxGeometry>
        </mxCell>
        <mxCell id="Agyuet9ktowAPZugGZ8n-11" value="&amp;lt;&amp;lt;extend&amp;gt;&amp;gt;" style="endArrow=open;endSize=12;dashed=1;html=1;rounded=0;strokeColor=default;align=center;verticalAlign=middle;fontFamily=Helvetica;fontSize=11;fontColor=default;labelBackgroundColor=default;edgeStyle=none;" edge="1" parent="1" source="Agyuet9ktowAPZugGZ8n-12" target="Agyuet9ktowAPZugGZ8n-9">
          <mxGeometry x="0.0007" width="160" relative="1" as="geometry">
            <mxPoint x="380.00006978857107" y="437.4412157163531" as="sourcePoint" />
            <mxPoint x="524.14" y="300" as="targetPoint" />
            <mxPoint as="offset" />
          </mxGeometry>
        </mxCell>
        <mxCell id="Agyuet9ktowAPZugGZ8n-12" value="Xem bình luận" style="ellipse;whiteSpace=wrap;html=1;" vertex="1" parent="1">
          <mxGeometry x="220" y="295" width="120" height="50" as="geometry" />
        </mxCell>
        <mxCell id="Agyuet9ktowAPZugGZ8n-13" value="" style="endArrow=none;html=1;rounded=0;" edge="1" parent="1" source="Agyuet9ktowAPZugGZ8n-1" target="Agyuet9ktowAPZugGZ8n-3">
          <mxGeometry width="50" height="50" relative="1" as="geometry">
            <mxPoint x="150" y="223" as="sourcePoint" />
            <mxPoint x="284" y="342" as="targetPoint" />
          </mxGeometry>
        </mxCell>
        <mxCell id="Agyuet9ktowAPZugGZ8n-15" value="Phản hồi bình luận" style="ellipse;whiteSpace=wrap;html=1;" vertex="1" parent="1">
          <mxGeometry x="418" y="400" width="120" height="50" as="geometry" />
        </mxCell>
        <mxCell id="Agyuet9ktowAPZugGZ8n-17" value="&amp;lt;&amp;lt;extend&amp;gt;&amp;gt;" style="endArrow=open;endSize=12;dashed=1;html=1;rounded=0;strokeColor=default;align=center;verticalAlign=middle;fontFamily=Helvetica;fontSize=11;fontColor=default;labelBackgroundColor=default;edgeStyle=none;entryX=0;entryY=0.5;entryDx=0;entryDy=0;" edge="1" parent="1" source="Agyuet9ktowAPZugGZ8n-12" target="Agyuet9ktowAPZugGZ8n-15">
          <mxGeometry x="0.0007" width="160" relative="1" as="geometry">
            <mxPoint x="345" y="340" as="sourcePoint" />
            <mxPoint x="428" y="355" as="targetPoint" />
            <mxPoint as="offset" />
          </mxGeometry>
        </mxCell>
        <mxCell id="Agyuet9ktowAPZugGZ8n-18" value="&amp;lt;&amp;lt;include&amp;gt;&amp;gt;" style="endArrow=open;endSize=12;dashed=1;html=1;rounded=0;strokeColor=default;align=center;verticalAlign=middle;fontFamily=Helvetica;fontSize=11;fontColor=default;labelBackgroundColor=default;edgeStyle=none;" edge="1" parent="1" source="Agyuet9ktowAPZugGZ8n-15" target="Agyuet9ktowAPZugGZ8n-6">
          <mxGeometry x="0.0007" width="160" relative="1" as="geometry">
            <mxPoint x="350" y="165" as="sourcePoint" />
            <mxPoint x="450" y="165" as="targetPoint" />
            <mxPoint as="offset" />
            <Array as="points">
              <mxPoint x="660" y="425" />
              <mxPoint x="660" y="155" />
            </Array>
          </mxGeometry>
        </mxCell>
      </root>
    </mxGraphModel>
  </diagram>
</mxfile>
